<svg width="213" height="79" viewBox="0 0 213 79" fill="none" xmlns="http://www.w3.org/2000/svg">
<path d="M15.5455 71H2.64205V36.0909H15.5284C19.0852 36.0909 22.1477 36.7898 24.7159 38.1875C27.2955 39.5739 29.2841 41.5739 30.6818 44.1875C32.0795 46.7898 32.7784 49.9034 32.7784 53.5284C32.7784 57.1648 32.0795 60.2898 30.6818 62.9034C29.2955 65.517 27.3125 67.5227 24.733 68.9205C22.1534 70.3068 19.0909 71 15.5455 71ZM11.0795 63.8068H15.2216C17.1761 63.8068 18.8295 63.4773 20.1818 62.8182C21.5455 62.1477 22.5739 61.0625 23.267 59.5625C23.9716 58.0511 24.3239 56.0398 24.3239 53.5284C24.3239 51.017 23.9716 49.017 23.267 47.5284C22.5625 46.0284 21.5227 44.9489 20.1477 44.2898C18.7841 43.6193 17.1023 43.2841 15.1023 43.2841H11.0795V63.8068ZM49.9432 71.4943C47.2045 71.4943 44.8409 70.9545 42.8523 69.875C40.875 68.7841 39.3523 67.233 38.2841 65.2216C37.2273 63.1989 36.6989 60.7955 36.6989 58.0114C36.6989 55.3068 37.233 52.9432 38.3011 50.9205C39.3693 48.8864 40.875 47.3068 42.8182 46.1818C44.7614 45.0455 47.0511 44.4773 49.6875 44.4773C51.5511 44.4773 53.2557 44.767 54.8011 45.3466C56.3466 45.9261 57.6818 46.7841 58.8068 47.9205C59.9318 49.0568 60.8068 50.4602 61.4318 52.1307C62.0568 53.7898 62.3693 55.6932 62.3693 57.8409V59.9205H39.6136V55.0795H54.6136C54.6023 54.1932 54.392 53.4034 53.983 52.7102C53.5739 52.017 53.0114 51.4773 52.2955 51.0909C51.5909 50.6932 50.7784 50.4943 49.858 50.4943C48.9261 50.4943 48.0909 50.7045 47.3523 51.125C46.6136 51.5341 46.0284 52.0966 45.5966 52.8125C45.1648 53.517 44.9375 54.3182 44.9148 55.2159V60.142C44.9148 61.2102 45.125 62.1477 45.5455 62.9545C45.9659 63.75 46.5625 64.3693 47.3352 64.8125C48.108 65.2557 49.0284 65.4773 50.0966 65.4773C50.8352 65.4773 51.5057 65.375 52.108 65.1705C52.7102 64.9659 53.2273 64.6648 53.6591 64.267C54.0909 63.8693 54.4148 63.3807 54.6307 62.8011L62.2841 63.0227C61.9659 64.7386 61.267 66.233 60.1875 67.5057C59.1193 68.767 57.7159 69.75 55.9773 70.4545C54.2386 71.1477 52.2273 71.4943 49.9432 71.4943ZM91.321 44.8182L82.3381 71H72.7926L63.8267 44.8182H72.6051L77.429 62.8523H77.7017L82.5426 44.8182H91.321ZM94.517 71V36.0909H102.955V64.1477H117.477V71H94.517ZM134.067 71.4943C131.317 71.4943 128.953 70.9318 126.976 69.8068C125.01 68.6705 123.493 67.0909 122.425 65.0682C121.368 63.0341 120.839 60.6761 120.839 57.9943C120.839 55.3011 121.368 52.9432 122.425 50.9205C123.493 48.8864 125.01 47.3068 126.976 46.1818C128.953 45.0455 131.317 44.4773 134.067 44.4773C136.817 44.4773 139.175 45.0455 141.141 46.1818C143.118 47.3068 144.635 48.8864 145.692 50.9205C146.76 52.9432 147.294 55.3011 147.294 57.9943C147.294 60.6761 146.76 63.0341 145.692 65.0682C144.635 67.0909 143.118 68.6705 141.141 69.8068C139.175 70.9318 136.817 71.4943 134.067 71.4943ZM134.118 65.2045C135.118 65.2045 135.964 64.8977 136.658 64.2841C137.351 63.6705 137.879 62.8182 138.243 61.7273C138.618 60.6364 138.805 59.375 138.805 57.9432C138.805 56.4886 138.618 55.2159 138.243 54.125C137.879 53.0341 137.351 52.1818 136.658 51.5682C135.964 50.9545 135.118 50.6477 134.118 50.6477C133.084 50.6477 132.209 50.9545 131.493 51.5682C130.788 52.1818 130.249 53.0341 129.874 54.125C129.51 55.2159 129.328 56.4886 129.328 57.9432C129.328 59.375 129.51 60.6364 129.874 61.7273C130.249 62.8182 130.788 63.6705 131.493 64.2841C132.209 64.8977 133.084 65.2045 134.118 65.2045ZM158.945 71.4432C157.274 71.4432 155.791 71.1648 154.496 70.608C153.212 70.0398 152.195 69.1875 151.445 68.0511C150.706 66.9034 150.337 65.4659 150.337 63.7386C150.337 62.2841 150.592 61.0568 151.104 60.0568C151.615 59.0568 152.32 58.2443 153.217 57.6193C154.115 56.9943 155.149 56.5227 156.32 56.2045C157.49 55.875 158.74 55.6534 160.07 55.5398C161.558 55.4034 162.757 55.2614 163.666 55.1136C164.575 54.9545 165.234 54.733 165.643 54.4489C166.064 54.1534 166.274 53.7386 166.274 53.2045V53.1193C166.274 52.2443 165.973 51.5682 165.371 51.0909C164.768 50.6136 163.956 50.375 162.933 50.375C161.831 50.375 160.945 50.6136 160.274 51.0909C159.604 51.5682 159.178 52.2273 158.996 53.0682L151.308 52.7955C151.536 51.2045 152.121 49.7841 153.064 48.5341C154.018 47.2727 155.325 46.2841 156.984 45.5682C158.655 44.8409 160.661 44.4773 163.001 44.4773C164.672 44.4773 166.212 44.6761 167.621 45.0739C169.03 45.4602 170.257 46.0284 171.303 46.7784C172.348 47.517 173.155 48.4261 173.723 49.5057C174.303 50.5852 174.592 51.8182 174.592 53.2045V71H166.751V67.3523H166.547C166.081 68.2386 165.484 68.9886 164.757 69.6023C164.041 70.2159 163.195 70.6761 162.217 70.983C161.251 71.2898 160.161 71.4432 158.945 71.4432ZM161.518 65.9886C162.416 65.9886 163.223 65.8068 163.939 65.4432C164.666 65.0795 165.246 64.5795 165.678 63.9432C166.109 63.2955 166.325 62.5455 166.325 61.6932V59.2045C166.087 59.3295 165.797 59.4432 165.456 59.5455C165.126 59.6477 164.763 59.7443 164.365 59.8352C163.967 59.9261 163.558 60.0057 163.138 60.0739C162.717 60.142 162.314 60.2045 161.928 60.2614C161.143 60.3864 160.473 60.5795 159.916 60.8409C159.371 61.1023 158.95 61.4432 158.655 61.8636C158.371 62.2727 158.229 62.7614 158.229 63.3295C158.229 64.1932 158.536 64.8523 159.149 65.3068C159.774 65.7614 160.564 65.9886 161.518 65.9886ZM189.251 71.375C187.32 71.375 185.564 70.875 183.984 69.875C182.405 68.875 181.143 67.375 180.2 65.375C179.257 63.375 178.786 60.892 178.786 57.9261C178.786 54.8466 179.274 52.3125 180.251 50.3239C181.229 48.3352 182.507 46.8636 184.087 45.9091C185.678 44.9545 187.388 44.4773 189.217 44.4773C190.592 44.4773 191.768 44.7159 192.746 45.1932C193.723 45.6591 194.53 46.2614 195.166 47C195.803 47.7386 196.286 48.5057 196.615 49.3011H196.786V36.0909H205.121V71H196.871V66.7557H196.615C196.263 67.5625 195.763 68.3182 195.115 69.0227C194.467 69.7273 193.655 70.2955 192.678 70.7273C191.712 71.1591 190.57 71.375 189.251 71.375ZM192.149 64.8807C193.161 64.8807 194.024 64.5966 194.74 64.0284C195.456 63.4489 196.007 62.6364 196.393 61.5909C196.78 60.5455 196.973 59.3182 196.973 57.9091C196.973 56.4773 196.78 55.2443 196.393 54.2102C196.018 53.1761 195.467 52.3807 194.74 51.8239C194.024 51.267 193.161 50.9886 192.149 50.9886C191.115 50.9886 190.24 51.2727 189.524 51.8409C188.808 52.4091 188.263 53.2102 187.888 54.2443C187.524 55.2784 187.342 56.5 187.342 57.9091C187.342 59.3182 187.53 60.5455 187.905 61.5909C188.28 62.6364 188.82 63.4489 189.524 64.0284C190.24 64.5966 191.115 64.8807 192.149 64.8807Z" fill="white"/>
<rect x="0.5" y="0.5" width="15" height="15" rx="3.5" fill="#18181B" stroke="#27272A"/>
<rect x="20.5" y="0.5" width="15" height="15" rx="3.5" fill="#4C1D95" stroke="#6D28D9"/>
<rect x="40.5" y="0.5" width="15" height="15" rx="3.5" fill="#5B21B6" stroke="#7C3AED"/>
<rect x="60.5" y="0.5" width="15" height="15" rx="3.5" fill="#6D28D9" stroke="#8B5CF6"/>
<rect x="80.5" y="0.5" width="15" height="15" rx="3.5" fill="#7C3AED" stroke="#A78BFA"/>
<rect x="100.5" y="0.5" width="15" height="15" rx="3.5" fill="#8B5CF6" stroke="#C4B5FD"/>
</svg>
